<?xml version="1.0" encoding="UTF-8" standalone="no"?>
<!-- Created with Inkscape (http://www.inkscape.org/) -->

<svg
   xmlns:dc="http://purl.org/dc/elements/1.1/"
   xmlns:cc="http://creativecommons.org/ns#"
   xmlns:rdf="http://www.w3.org/1999/02/22-rdf-syntax-ns#"
   xmlns:svg="http://www.w3.org/2000/svg"
   xmlns="http://www.w3.org/2000/svg"
   xmlns:sodipodi="http://sodipodi.sourceforge.net/DTD/sodipodi-0.dtd"
   xmlns:inkscape="http://www.inkscape.org/namespaces/inkscape"
   id="svg2"
   version="1.1"
   inkscape:version="0.91 r13725"
   width="470.9296"
   height="471.32257"
   viewBox="0 0 470.9296 471.32257"
   sodipodi:docname="ic_launcher2.svg">
  <metadata
     id="metadata8">
    <rdf:RDF>
      <cc:Work
         rdf:about="">
        <dc:format>image/svg+xml</dc:format>
        <dc:type
           rdf:resource="http://purl.org/dc/dcmitype/StillImage" />
        <dc:title></dc:title>
      </cc:Work>
    </rdf:RDF>
  </metadata>
  <defs
     id="defs6" />
  <sodipodi:namedview
     pagecolor="#ffffff"
     bordercolor="#666666"
     borderopacity="1"
     objecttolerance="10"
     gridtolerance="10"
     guidetolerance="10"
     inkscape:pageopacity="0"
     inkscape:pageshadow="2"
     inkscape:window-width="1366"
     inkscape:window-height="744"
     id="namedview4"
     showgrid="false"
     fit-margin-top="0"
     fit-margin-left="0"
     fit-margin-right="0"
     fit-margin-bottom="0"
     inkscape:zoom="0.921875"
     inkscape:cx="153.20731"
     inkscape:cy="273.99219"
     inkscape:window-x="0"
     inkscape:window-y="0"
     inkscape:window-maximized="1"
     inkscape:current-layer="svg2" />
  <g
     id="g4138"
     transform="translate(-20.604256,-20.608669)">
    <path
       style="fill:#4bbcf0"
       d="m 227.25778,490.42357 c -41.56974,-5.036 -82.026,-21.75831 -116.7286,-48.24896 C 101.93351,435.61301 83.018071,417.05441 74.168619,406.5 52.788339,381.00054 36.013249,347.9499 27.546086,314.64329 22.172568,293.50591 20.608753,280.40772 20.604262,256.5 20.596974,217.69824 27.694161,186.7474 44.452001,152.5 67.205108,106.00028 104.01047,68.587798 149.42721,45.793174 185.13227,27.872835 216.18177,20.535603 256,20.609217 c 17.78535,0.03288 22.47032,0.393864 35.37909,2.72601 33.7102,6.090207 56.41868,14.251715 85.12091,30.592745 15.02452,8.553907 22.06004,13.724611 35.40544,26.020978 25.21506,23.233 42.34157,45.24811 54.88471,70.55105 12.32356,24.85999 18.47492,44.36374 22.86604,72.5 2.50141,16.02791 2.50402,50.94263 0.005,67 -6.61191,42.48471 -23.15393,80.55765 -49.47138,113.86282 -7.50167,9.49349 -26.87473,28.87624 -36.68982,36.70818 -26.91071,21.47335 -63.93909,39.20101 -96.11555,46.01615 -25.19317,5.33605 -55.69353,6.79639 -80.12667,3.83642 z"
       id="path4142"
       inkscape:connector-curvature="0" />
    <path
       style="fill:#005599"
       d="m 236,489.89991 c -33.87287,-2.94176 -68.92603,-13.94127 -97.14025,-30.48213 -9.69631,-5.68456 -10.76108,-6.8659 -7.67432,-8.51444 5.74017,-3.06563 239.85494,-173.28222 239.5577,-174.17395 -0.21825,-0.65475 -15.687,-0.9337 -44.53876,-0.80316 -35.93193,0.16257 -44.20417,-0.0457 -44.2033,-1.11312 5.9e-4,-0.72221 14.28809,-16.21193 31.75,-34.42159 C 388.70522,162.2277 438.51571,111 439.563,111 c 1.47603,0 12.61996,15.87671 19.98314,28.46989 30.13389,51.53772 38.88093,117.04874 23.51088,176.08496 C 466.122,380.6021 420.6645,436.39221 360.5,465.96941 c -7.7,3.78536 -18.47532,8.53106 -23.94515,10.54598 C 305.21414,488.0604 269.52225,492.81123 236,489.89991 Z M 119.41279,446.82676 C 103.02,435.25676 81.76468,414.50807 69.300254,397.90867 46.284021,367.25699 31.761404,333.48606 24.99091,294.87162 22.232278,279.13819 21.228906,249.07088 22.922678,232.89442 28.652192,178.17442 51.436177,129.75113 89.495677,91.405398 109.55757,71.192631 128.20557,57.79864 153.5,45.434067 177.20937,33.844315 199.99888,26.99494 226.34072,23.541825 c 12.52652,-1.642083 49.17611,-2.134941 51.45069,-0.691901 0.9363,0.594008 -6.83184,11.58688 -28.25,39.977222 C 233.29364,84.364005 220,102.66343 220,103.49254 c 0,0.8291 0.7875,1.50669 1.75,1.50576 6.19896,-0.006 88.00894,4.17198 89.10375,4.55051 1.99014,0.68807 1.11248,2.21676 -8.11478,14.13421 -4.60636,5.94934 -35.59229,45.91698 -68.85761,88.81698 -73.1512,94.33809 -71.12407,91.65729 -70.09,92.69136 0.45936,0.45936 13.95221,1.18721 29.98411,1.61745 16.03191,0.43023 29.44652,1.07985 29.81026,1.44359 0.36374,0.36374 0.43117,1.24325 0.14983,1.95447 -0.28133,0.71122 -21.53196,31.44313 -47.22362,68.29313 -25.69166,36.85 -47.35363,68.2375 -48.1377,69.75 -0.78408,1.5125 -1.79079,2.75 -2.23713,2.75 -0.44634,0 -3.47228,-1.87796 -6.72432,-4.17324 z M 371.66667,73.333333 C 371.3,72.966667 371,72.315029 371,71.885249 c 0,-1.427751 10.05187,-12.885598 11.28646,-12.865114 1.52487,0.0253 19.07163,12.554142 19.53686,13.949825 0.38354,1.150624 -29.01516,1.504864 -30.15665,0.363373 z"
       id="path4140"
       inkscape:connector-curvature="0" />
  </g>
</svg>
