<?xml version="1.0" encoding="UTF-8" standalone="no"?>
<!-- Created with Inkscape (http://www.inkscape.org/) -->

<svg
   xmlns:dc="http://purl.org/dc/elements/1.1/"
   xmlns:cc="http://creativecommons.org/ns#"
   xmlns:rdf="http://www.w3.org/1999/02/22-rdf-syntax-ns#"
   xmlns:svg="http://www.w3.org/2000/svg"
   xmlns="http://www.w3.org/2000/svg"
   xmlns:sodipodi="http://sodipodi.sourceforge.net/DTD/sodipodi-0.dtd"
   xmlns:inkscape="http://www.inkscape.org/namespaces/inkscape"
   width="228.60001mm"
   height="228.60001mm"
   viewBox="0 0 810.00002 810.00002"
   id="svg6093"
   version="1.1"
   inkscape:version="0.91 r13725"
   sodipodi:docname="ic_launcher-with-letters.svg">
  <defs
     id="defs6095" />
  <sodipodi:namedview
     id="base"
     pagecolor="#ffffff"
     bordercolor="#666666"
     borderopacity="1.0"
     inkscape:pageopacity="0.0"
     inkscape:pageshadow="2"
     inkscape:zoom="0.35"
     inkscape:cx="412.14288"
     inkscape:cy="414.28568"
     inkscape:document-units="px"
     inkscape:current-layer="layer1"
     showgrid="false"
     inkscape:window-width="1366"
     inkscape:window-height="744"
     inkscape:window-x="0"
     inkscape:window-y="0"
     inkscape:window-maximized="1"
     fit-margin-top="0"
     fit-margin-left="0"
     fit-margin-right="0"
     fit-margin-bottom="0" />
  <metadata
     id="metadata6098">
    <rdf:RDF>
      <cc:Work
         rdf:about="">
        <dc:format>image/svg+xml</dc:format>
        <dc:type
           rdf:resource="http://purl.org/dc/dcmitype/StillImage" />
        <dc:title></dc:title>
      </cc:Work>
    </rdf:RDF>
  </metadata>
  <g
     inkscape:label="Ebene 1"
     inkscape:groupmode="layer"
     id="layer1"
     transform="translate(37.142883,-136.64789)">
    <circle
       style="opacity:1;fill:#01579b;fill-opacity:1;stroke:none;stroke-width:10;stroke-miterlimit:4;stroke-dasharray:none"
       id="path4349"
       cx="367.85712"
       cy="541.64789"
       r="405" />
    <path
       inkscape:connector-curvature="0"
       id="path4807"
       d="m 131.88133,882.73441 c 0.12866,-0.4685 32.89008,-47.661 72.80313,-104.87229 39.91305,-57.21134 80.7155,-115.70636 90.67211,-129.9891 11.02241,-15.81166 18.10289,-26.6014 18.10289,-27.58672 0,-1.31837 -0.42371,-1.61688 -2.28583,-1.61041 -9.08736,0.0316 -107.79746,-2.72491 -108.01517,-3.0163 -0.37914,-0.50742 -8.2414,9.68188 127.67347,-165.46345 137.43031,-177.09823 137.45585,-177.13134 137.45585,-178.25336 0,-0.44642 -0.24992,-1.02194 -0.55543,-1.27892 -0.30551,-0.25699 -37.66322,-2.15519 -83.01711,-4.2182 -45.35393,-2.06304 -82.56646,-3.89359 -82.69454,-4.06793 -0.12808,-0.17431 38.40474,-51.40787 85.62848,-113.85236 47.22373,-62.444456 117.05704,-154.7910857 155.18515,-205.214726 38.12806,-50.423634 69.93779,-91.952734 70.68827,-92.286874 1.03889,-0.46257 228.93288,-10.39264 245.49323,-10.69691 2.58294,-0.0475 3.00283,-0.2141 1.82869,-0.72588 -0.96107,-0.41895 0.83979,-0.65309 4.87652,-0.63398 3.52023,0.0168 5.83662,0.18255 5.1476,0.36868 -0.6892,0.18611 -3.70643,3.44456 -6.70513,7.24099 -2.99895,3.79644 -68.4048,83.18102 -145.34649,176.410184 C 556.12739,220.1155 567.61009,206.05488 568.04709,207.60484 c 0.29308,1.03953 9.68739,1.21781 69.30653,1.31515 37.93214,0.0621 78.7755,0.34197 90.76304,0.62226 l 21.79567,0.50963 L 580.48005,385.5286 C 471.08401,498.82732 411.03738,561.51981 411.01842,562.45726 c -0.0275,1.34813 1.15848,1.45236 16.58122,1.45773 9.13578,0 45.27508,-0.40561 80.30957,-0.90849 35.03448,-0.50279 64.52196,-0.78537 65.52774,-0.62798 1.63575,0.25597 1.15334,0.77658 -4.57171,4.93377 -9.01125,6.54341 -346.10863,250.50918 -386.76603,279.91212 -47.62387,34.441 -50.47873,36.4598 -50.21788,35.51 z"
       style="fill:#4fc3f7;fill-opacity:1" />
    <g
       transform="matrix(1.0155065,0,-0.31231908,0.98473027,-4,-4)"
       style="font-style:normal;font-weight:normal;font-size:362.85510254px;line-height:0%;font-family:sans-serif;letter-spacing:0px;word-spacing:0px;fill:#000000;fill-opacity:1;stroke:none;stroke-width:1px;stroke-linecap:butt;stroke-linejoin:miter;stroke-opacity:1"
       id="text4302">
      <path
         d="m 383.02014,303.4248 0,34.90354 q -20.37516,-9.74465 -38.44705,-14.52838 -18.07188,-4.78373 -34.90354,-4.78373 -29.23393,0 -45.17971,11.33922 -15.76861,11.33922 -15.76861,32.24591 0,17.54036 10.45335,26.5763 10.63052,8.85877 40.04163,14.3512 l 21.61539,4.42939 q 40.04163,7.61854 58.99939,26.93065 19.13493,19.13494 19.13493,51.38085 0,38.44705 -25.8676,58.29069 -25.69042,19.84364 -75.47669,19.84364 -18.78059,0 -40.04163,-4.25221 -21.08386,-4.25221 -43.76231,-12.57945 l 0,-36.85247 q 21.79257,12.2251 42.69926,18.42623 20.90669,6.20114 41.10468,6.20114 30.65133,0 47.30582,-12.04792 16.65448,-12.04793 16.65448,-34.37202 0,-19.48929 -12.04793,-30.47416 -11.87074,-10.98487 -39.15575,-16.47731 l -21.79256,-4.2522 q -40.04163,-7.97289 -57.93634,-24.98173 -17.89471,-17.00883 -17.89471,-47.30581 0,-35.08072 24.62737,-55.27871 24.80455,-20.19799 68.21251,-20.19799 18.60341,0 37.91552,3.36633 19.31211,3.36633 39.5101,10.099 z"
         style="line-height:0%;letter-spacing:0px;fill:#ffffff;fill-opacity:1"
         id="path4344"
         inkscape:connector-curvature="0" />
    </g>
    <g
       transform="matrix(1.0155065,0,-0.31231908,0.98473027,-4,-4)"
       style="font-style:normal;font-weight:normal;font-size:362.85510254px;line-height:0%;font-family:sans-serif;letter-spacing:0px;word-spacing:0px;fill:#000000;fill-opacity:1;stroke:none;stroke-width:1px;stroke-linecap:butt;stroke-linejoin:miter;stroke-opacity:1"
       id="text4302-5">
      <path
         d="m 704.74097,648.99882 152.01644,0 0,30.11981 -116.22702,0 0,77.95715 104.8878,0 0,30.11981 -104.8878,0 0,126.32602 -35.78942,0 0,-264.52279 z"
         style="line-height:0%;letter-spacing:0px;fill:#ffffff;fill-opacity:1"
         id="path4347"
         inkscape:connector-curvature="0" />
    </g>
  </g>
</svg>
