<?xml version="1.0" encoding="UTF-8" standalone="no"?>
<!-- Created with Inkscape (http://www.inkscape.org/) -->

<svg
   xmlns:dc="http://purl.org/dc/elements/1.1/"
   xmlns:cc="http://creativecommons.org/ns#"
   xmlns:rdf="http://www.w3.org/1999/02/22-rdf-syntax-ns#"
   xmlns:svg="http://www.w3.org/2000/svg"
   xmlns="http://www.w3.org/2000/svg"
   xmlns:sodipodi="http://sodipodi.sourceforge.net/DTD/sodipodi-0.dtd"
   xmlns:inkscape="http://www.inkscape.org/namespaces/inkscape"
   width="137.11301mm"
   height="137.11301mm"
   viewBox="0 0 485.8335 485.83349"
   id="svg6093"
   version="1.1"
   inkscape:version="0.92.4 5da689c313, 2019-01-14"
   sodipodi:docname="Lightning-bolt-blue-simplified.svg">
  <defs
     id="defs6095" />
  <sodipodi:namedview
     id="base"
     pagecolor="#ffffff"
     bordercolor="#666666"
     borderopacity="1.0"
     inkscape:pageopacity="0.0"
     inkscape:pageshadow="2"
     inkscape:zoom="0.24748738"
     inkscape:cx="1378.4378"
     inkscape:cy="200.19365"
     inkscape:document-units="px"
     inkscape:current-layer="layer1"
     showgrid="false"
     inkscape:window-width="1366"
     inkscape:window-height="715"
     inkscape:window-x="0"
     inkscape:window-y="0"
     inkscape:window-maximized="1"
     fit-margin-top="0"
     fit-margin-left="0"
     fit-margin-right="0"
     fit-margin-bottom="0" />
  <metadata
     id="metadata6098">
    <rdf:RDF>
      <cc:Work
         rdf:about="">
        <dc:format>image/svg+xml</dc:format>
        <dc:type
           rdf:resource="http://purl.org/dc/dcmitype/StillImage" />
        <dc:title></dc:title>
      </cc:Work>
    </rdf:RDF>
  </metadata>
  <g
     inkscape:label="Ebene 1"
     inkscape:groupmode="layer"
     id="layer1"
     transform="translate(-309.09864,-277.15736)">
    <path
       style="fill:#4fc3f7;fill-opacity:1;stroke-width:0.62111044"
       clip-path="none"
       d="m 298.95312,0 c -43.75743,51.600087 -87.82111,102.94119 -131.30664,154.77148 109.50977,5.60157 0,0 109.50977,5.60157 -57.49222,67.72726 -117.04706,133.66882 -174.625,201.32226 72.11406,2.58282 0,0 72.11406,2.58282 -116.355474,150.63868 0,0 -118.375779,153.66914 C 153.28995,455.72755 250.42138,393.67751 346.92578,330.6582 c -107.48828,-0.12695 0,0 -107.48828,-0.12695 73.78146,-69.47289 148.79786,-137.61423 223.21094,-206.40625 -119.9961,-1.60547 0,0 -119.9961,-1.60547 C 379.12122,81.605568 417.05413,41.023757 454.11914,0.65586306 402.39656,0.10050306 350.67572,0.55536002 298.95312,0 Z"
       transform="matrix(0.93749997,0,0,0.93749997,309.09864,277.15736)"
       id="path4807"
       inkscape:connector-curvature="0"
       sodipodi:nodetypes="cccccccccccc" />
  </g>
</svg>
