<?xml version="1.0" encoding="UTF-8" standalone="no"?>
<!-- Created with Inkscape (http://www.inkscape.org/) -->

<svg
   xmlns:dc="http://purl.org/dc/elements/1.1/"
   xmlns:cc="http://creativecommons.org/ns#"
   xmlns:rdf="http://www.w3.org/1999/02/22-rdf-syntax-ns#"
   xmlns:svg="http://www.w3.org/2000/svg"
   xmlns="http://www.w3.org/2000/svg"
   xmlns:sodipodi="http://sodipodi.sourceforge.net/DTD/sodipodi-0.dtd"
   xmlns:inkscape="http://www.inkscape.org/namespaces/inkscape"
   width="518.22241"
   height="518.22241"
   viewBox="0 0 485.8335 485.83349"
   id="svg6093"
   version="1.1"
   inkscape:version="0.92.3 (2405546, 2018-03-11)"
   sodipodi:docname="Lightning-bolt-green-crossedout.svg">
  <defs
     id="defs6095" />
  <sodipodi:namedview
     id="base"
     pagecolor="#ffffff"
     bordercolor="#666666"
     borderopacity="1.0"
     inkscape:pageopacity="0.0"
     inkscape:pageshadow="2"
     inkscape:zoom="0.35"
     inkscape:cx="457.4919"
     inkscape:cy="194.33664"
     inkscape:document-units="px"
     inkscape:current-layer="layer1"
     showgrid="false"
     inkscape:window-width="1366"
     inkscape:window-height="744"
     inkscape:window-x="0"
     inkscape:window-y="0"
     inkscape:window-maximized="1"
     fit-margin-top="0"
     fit-margin-left="0"
     fit-margin-right="0"
     fit-margin-bottom="0"
     units="px" />
  <metadata
     id="metadata6098">
    <rdf:RDF>
      <cc:Work
         rdf:about="">
        <dc:format>image/svg+xml</dc:format>
        <dc:type
           rdf:resource="http://purl.org/dc/dcmitype/StillImage" />
        <dc:title></dc:title>
      </cc:Work>
    </rdf:RDF>
  </metadata>
  <g
     inkscape:label="Ebene 1"
     inkscape:groupmode="layer"
     id="layer1"
     transform="translate(-309.09864,-277.15736)">
    <path
       style="fill:#008015;fill-opacity:1;stroke-width:0.36524457"
       clip-path="none"
       d="m 575.59723,373.58595 92.37696,0.96776 c -2.63834,2.77442 -4.38993,4.62053 -7.11692,7.48744 -63.79297,67.06628 -59.28965,62.28265 -59.11829,62.80998 0.11493,0.35366 3.79782,0.41477 27.17535,0.44785 14.87373,0.0211 30.88899,0.11596 35.58949,0.21133 l 8.54719,0.17409 -66.43724,59.69901 c -42.89579,38.54602 -66.44091,59.87476 -66.44834,60.19371 -0.0107,0.45866 0.4547,0.49522 6.50218,0.49707 3.58227,0 17.75205,-0.13868 31.48959,-0.30977 13.73753,-0.17103 25.30019,-0.26726 25.69455,-0.21372 0.64142,0.0871 0.45241,0.2642 -1.79246,1.67856 -3.53345,2.22616 -135.71427,85.22739 -151.65664,95.23074 -18.674,11.71737 -19.79359,12.40439 -19.6913,12.08125 0.0505,-0.15939 12.89723,-16.21523 28.54771,-35.67942 15.65051,-19.4642 31.64964,-39.36543 35.55377,-44.22465 4.32206,-5.37936 7.09843,-9.0493 7.09843,-9.38451 0,-0.44854 -0.16669,-0.55119 -0.89685,-0.54871 -3.56329,0.0106 -42.26868,-0.92625 -42.35406,-1.02538 -0.14866,-0.17265 -3.2319,3.29332 50.0623,-56.2939 53.8884,-60.25163 53.89856,-60.26344 53.89856,-60.64516 0,-0.15188 -0.097,-0.34721 -0.21682,-0.43464 -0.11978,-0.0874 -14.76883,-0.73295 -32.55275,-1.43482 -17.78394,-0.70186 -32.37564,-1.32508 -32.42587,-1.38439 -0.0502,-0.0593 15.05939,-17.48933 33.57651,-38.73393 13.57039,-15.56927 29.88434,-34.287 44.59495,-51.16579 z"
       id="path4807"
       inkscape:connector-curvature="0" />
    <text
       xml:space="preserve"
       style="font-style:normal;font-weight:normal;font-size:37.5px;line-height:1.25;font-family:sans-serif;letter-spacing:0px;word-spacing:0px;fill:#000000;fill-opacity:1;stroke:none;stroke-width:0.93749994"
       x="583.73389"
       y="609.57391"
       id="text4671"><tspan
         sodipodi:role="line"
         id="tspan4669"
         x="583.73389"
         y="642.75262"
         style="stroke-width:0.93749994"></tspan></text>
    <circle
       style="fill:none;fill-opacity:1;fill-rule:evenodd;stroke:#008015;stroke-width:42.51968384;stroke-miterlimit:4;stroke-dasharray:none;stroke-opacity:1"
       id="path6046"
       cx="550.9295"
       cy="521.15997"
       r="220.57104" />
    <path
       style="fill:none;stroke:#008015;stroke-width:42.51968361;stroke-linecap:butt;stroke-linejoin:miter;stroke-opacity:1;stroke-miterlimit:4;stroke-dasharray:none"
       d="M 386.77721,355.84801 702.84863,679.95514"
       id="path6048"
       inkscape:connector-curvature="0" />
  </g>
</svg>
