<?xml version="1.0" encoding="UTF-8" standalone="no"?>
<!-- Created with Inkscape (http://www.inkscape.org/) -->

<svg
   xmlns:dc="http://purl.org/dc/elements/1.1/"
   xmlns:cc="http://creativecommons.org/ns#"
   xmlns:rdf="http://www.w3.org/1999/02/22-rdf-syntax-ns#"
   xmlns:svg="http://www.w3.org/2000/svg"
   xmlns="http://www.w3.org/2000/svg"
   xmlns:sodipodi="http://sodipodi.sourceforge.net/DTD/sodipodi-0.dtd"
   xmlns:inkscape="http://www.inkscape.org/namespaces/inkscape"
   width="137.11301mm"
   height="137.11301mm"
   viewBox="0 0 485.8335 485.83349"
   id="svg6093"
   version="1.1"
   inkscape:version="0.92.4 5da689c313, 2019-01-14"
   sodipodi:docname="Shortcut3(simpler).svg">
  <defs
     id="defs6095" />
  <sodipodi:namedview
     id="base"
     pagecolor="#ffffff"
     bordercolor="#666666"
     borderopacity="1.0"
     inkscape:pageopacity="0.0"
     inkscape:pageshadow="2"
     inkscape:zoom="0.49497476"
     inkscape:cx="151.0659"
     inkscape:cy="124.36512"
     inkscape:document-units="px"
     inkscape:current-layer="layer1"
     showgrid="false"
     inkscape:window-width="1366"
     inkscape:window-height="715"
     inkscape:window-x="0"
     inkscape:window-y="0"
     inkscape:window-maximized="1"
     fit-margin-top="0"
     fit-margin-left="0"
     fit-margin-right="0"
     fit-margin-bottom="0" />
  <metadata
     id="metadata6098">
    <rdf:RDF>
      <cc:Work
         rdf:about="">
        <dc:format>image/svg+xml</dc:format>
        <dc:type
           rdf:resource="http://purl.org/dc/dcmitype/StillImage" />
        <dc:title></dc:title>
      </cc:Work>
    </rdf:RDF>
  </metadata>
  <g
     inkscape:label="Ebene 1"
     inkscape:groupmode="layer"
     id="layer1"
     transform="translate(-309.09864,-277.15736)">
    <circle
       style="fill:#2640d1;stroke-width:0.93749994;fill-opacity:1"
       id="path8"
       cx="552.48224"
       cy="519.60724"
       r="243.38361" />
    <path
       style="fill:#ffffff;fill-opacity:1;stroke-width:0.25028071"
       clip-path="none"
       d="m 568.01718,408.56915 c -16.14154,22.71299 -32.39605,45.31199 -48.43729,68.1263 40.39671,2.46567 0,0 40.39671,2.46567 -21.20812,29.81174 -43.17712,58.83747 -64.41686,88.61672 26.60193,1.1369 0,0 26.60193,1.1369 -42.92201,66.30713 0,0 -43.66727,67.64108 35.78955,-27.38748 71.62006,-54.70026 107.21927,-82.43969 -39.65101,-0.0558 0,0 -39.65101,-0.0558 27.217,-30.58012 54.88957,-60.57413 82.33958,-90.85456 -44.26498,-0.70669 0,0 -44.26498,-0.70669 13.45289,-18.00923 27.44583,-35.87227 41.11863,-53.64115 -19.07978,-0.24446 -38.15892,-0.0443 -57.23871,-0.2887 z"
       id="path4807"
       inkscape:connector-curvature="0"
       sodipodi:nodetypes="cccccccccccc" />
  </g>
</svg>
