<?xml version="1.0" encoding="UTF-8" standalone="no"?>
<!-- Created with Inkscape (http://www.inkscape.org/) -->

<svg
   xmlns:dc="http://purl.org/dc/elements/1.1/"
   xmlns:cc="http://creativecommons.org/ns#"
   xmlns:rdf="http://www.w3.org/1999/02/22-rdf-syntax-ns#"
   xmlns:svg="http://www.w3.org/2000/svg"
   xmlns="http://www.w3.org/2000/svg"
   xmlns:sodipodi="http://sodipodi.sourceforge.net/DTD/sodipodi-0.dtd"
   xmlns:inkscape="http://www.inkscape.org/namespaces/inkscape"
   width="208mm"
   height="208mm"
   viewBox="0 0 737.00788 737.00788"
   id="svg6093"
   version="1.1"
   inkscape:version="0.92.3 (2405546, 2018-03-11)"
   sodipodi:docname="Shortcut2.svg">
  <defs
     id="defs6095" />
  <sodipodi:namedview
     id="base"
     pagecolor="#ffffff"
     bordercolor="#666666"
     borderopacity="1.0"
     inkscape:pageopacity="0.0"
     inkscape:pageshadow="2"
     inkscape:zoom="0.175"
     inkscape:cx="-476.00636"
     inkscape:cy="746.90435"
     inkscape:document-units="px"
     inkscape:current-layer="layer1"
     showgrid="false"
     inkscape:window-width="1366"
     inkscape:window-height="744"
     inkscape:window-x="0"
     inkscape:window-y="0"
     inkscape:window-maximized="1"
     fit-margin-top="0"
     fit-margin-left="0"
     fit-margin-right="0"
     fit-margin-bottom="0" />
  <metadata
     id="metadata6098">
    <rdf:RDF>
      <cc:Work
         rdf:about="">
        <dc:format>image/svg+xml</dc:format>
        <dc:type
           rdf:resource="http://purl.org/dc/dcmitype/StillImage" />
        <dc:title></dc:title>
      </cc:Work>
    </rdf:RDF>
  </metadata>
  <g
     inkscape:label="Ebene 1"
     inkscape:groupmode="layer"
     id="layer1"
     transform="translate(-134.72431,-143.03628)">
    <circle
       style="fill:#ffffff;fill-opacity:1;stroke:none;stroke-width:7.18607473;stroke-miterlimit:4;stroke-dasharray:none;stroke-opacity:1"
       id="path4633"
       cx="503.2283"
       cy="511.54019"
       r="364.91092" />
    <path
       style="fill:#4fc3f7;fill-opacity:1;stroke-width:0.58229101"
       clip-path="none"
       d="m 537.26513,277.15738 c -23.1654,27.24236 -48.85564,57.45278 -70.22551,82.58158 -29.15965,34.28879 -52.95342,62.42088 -52.87429,62.51658 0.0791,0.0957 23.05725,1.10158 51.06234,2.23439 28.00507,1.13282 51.07352,2.17469 51.26216,2.3158 0.18865,0.14111 0.34143,0.45637 0.34143,0.70152 0,0.61609 -0.016,0.63515 -84.87627,97.88128 -83.92456,96.17377 -79.06927,90.5797 -78.83516,90.85834 0.13445,0.16001 61.08542,1.67226 66.69668,1.65497 1.14981,-0.004 1.4123,0.16168 1.4123,0.88561 0,0.54105 -4.37207,6.46432 -11.17818,15.14662 -6.148,7.84278 -31.34249,39.96336 -55.98797,71.37859 -24.64546,31.4152 -44.87585,57.32932 -44.95527,57.58657 -0.16107,0.52154 1.60199,-0.58729 31.00871,-19.49913 25.10509,-16.14541 233.25564,-150.1094 238.8199,-153.70243 3.5351,-2.28276 3.83274,-2.56862 2.82268,-2.70919 -0.62103,-0.0864 -18.82921,0.0689 -40.46227,0.34495 -21.63306,0.27614 -43.94679,0.49998 -49.58795,0.49998 -9.52321,-0.003 -10.25618,-0.062 -10.23924,-0.80229 0.0117,-0.51477 37.08917,-34.93936 104.63891,-97.15263 l 104.62144,-96.35422 -13.45962,-0.28099 c -7.40204,-0.15391 -32.62193,-0.30697 -56.04421,-0.34107 -36.81356,-0.0534 -42.61316,-0.15203 -42.79413,-0.72284 -0.26985,-0.85111 -7.36141,6.86968 93.09599,-101.37531 4.29429,-4.62719 7.0526,-7.60681 11.2073,-12.08474 z"
       id="path4807"
       inkscape:connector-curvature="0" />
  </g>
</svg>
